<svg width="22" height="25" viewBox="0 0 22 25" fill="none" xmlns="http://www.w3.org/2000/svg">
<path d="M19.8978 13.6004C19.6907 13.3277 19.463 13.0533 19.2231 12.7823C19.463 12.5096 19.6907 12.237 19.8978 11.9643C21.4403 9.93544 21.8768 8.10898 21.1297 6.81931C21.0126 6.62364 20.8698 6.44428 20.7052 6.28595C20.8589 5.98963 20.943 5.66258 20.9512 5.32934C20.9595 4.99609 20.8917 4.66532 20.753 4.36183C20.6142 4.05835 20.4081 3.79005 20.1502 3.57706C19.8922 3.36407 19.589 3.21192 19.2634 3.13205C18.9378 3.05217 18.5983 3.04663 18.2702 3.11586C17.9422 3.18508 17.6341 3.32726 17.3693 3.53173C17.1044 3.7362 16.8896 3.99764 16.7409 4.29644C16.5922 4.59524 16.5136 4.92362 16.5109 5.25696C15.9984 5.30643 15.4891 5.38488 14.9856 5.49191C14.0211 2.65533 12.4925 0.86145 10.7429 0.86145C8.99339 0.86145 7.4647 2.65533 6.50022 5.48162C3.55672 4.90024 1.23091 5.32041 0.356148 6.82274C-0.39094 8.10898 0.0455804 9.93544 1.58807 11.9677C1.79511 12.2404 2.02286 12.5148 2.26269 12.7857C2.02286 13.0584 1.79511 13.3311 1.58807 13.6038C0.0455804 15.6326 -0.39094 17.4591 0.356148 18.7488C0.439023 18.8909 0.535517 19.0247 0.644286 19.1483C0.546358 19.4335 0.508219 19.7356 0.532218 20.036C0.556217 20.3364 0.641847 20.6288 0.783831 20.895C0.925815 21.1613 1.12115 21.3958 1.35779 21.5841C1.59443 21.7725 1.86737 21.9107 2.15979 21.9902C2.45221 22.0698 2.75791 22.0889 3.05807 22.0466C3.35822 22.0042 3.64647 21.9012 3.90505 21.7438C4.16362 21.5865 4.38705 21.3783 4.56157 21.1318C4.73608 20.8854 4.85799 20.6061 4.91977 20.3111C5.45059 20.2673 5.97833 20.1923 6.50022 20.0864C7.46643 22.9145 8.99339 24.7169 10.7429 24.7169C12.4925 24.7169 14.0211 22.923 14.9856 20.0967C15.7634 20.2572 16.5551 20.3422 17.3494 20.3505C19.1455 20.3505 20.5068 19.8361 21.1297 18.7573C21.8785 17.4557 21.4403 15.6309 19.8978 13.6004ZM14.9252 9.1294C14.4375 8.80584 13.932 8.49371 13.4086 8.19301C12.8853 7.89232 12.3596 7.61278 11.8316 7.35439C12.6606 7.02117 13.5107 6.74274 14.3766 6.5209C14.6159 7.37773 14.7991 8.24904 14.9252 9.1294ZM10.7429 1.74467C12.0732 1.74467 13.2913 3.28815 14.1126 5.68914C12.9613 5.98859 11.8362 6.37973 10.7481 6.85876C9.65792 6.37663 8.52976 5.9843 7.37498 5.68571C8.19626 3.28815 9.41265 1.74467 10.7429 1.74467ZM7.10927 6.5209C7.97355 6.74354 8.82247 7.02137 9.65075 7.35267C9.12452 7.61163 8.59828 7.88946 8.07721 8.18787C7.55615 8.48628 7.04199 8.80012 6.5606 9.12425C6.68688 8.24563 6.87015 7.37603 7.10927 6.5209ZM1.12567 7.26349C1.58289 6.47631 2.64745 6.10073 4.07951 6.10073C4.80421 6.10927 5.52641 6.1868 6.23623 6.33225C5.91999 7.47452 5.69841 8.6406 5.57369 9.81882C4.61087 10.5159 3.70667 11.2896 2.87002 12.1323C2.66643 11.9037 2.47606 11.6704 2.29892 11.4326C1.00316 9.72964 0.576997 8.21016 1.12567 7.26349ZM5.47017 14.5608C4.76461 14.0127 4.09656 13.4186 3.47045 12.7823C4.09659 12.1466 4.76464 11.553 5.47017 11.0056C5.43336 11.5841 5.41438 12.1764 5.41323 12.7823C5.41208 13.3883 5.43106 13.9811 5.47017 14.5608ZM4.92667 19.4193C4.84828 19.0225 4.66154 18.6547 4.38689 18.3563C4.11223 18.0579 3.76027 17.8404 3.36954 17.7276C2.97881 17.6148 2.56438 17.611 2.17165 17.7167C1.77891 17.8224 1.42301 18.0335 1.14292 18.3269L1.12739 18.3029C0.576997 17.3562 1.00489 15.8367 2.29892 14.1337C2.47606 13.9051 2.66643 13.6718 2.87002 13.434C3.70666 14.2768 4.61086 15.0505 5.57369 15.7475C5.69885 16.9264 5.92102 18.093 6.23796 19.2358C5.80441 19.3198 5.36671 19.3811 4.92667 19.4193ZM6.55715 16.4352C7.04486 16.7588 7.5504 17.0709 8.07376 17.3716C8.60173 17.6735 9.12797 17.9513 9.65075 18.2085C8.82339 18.5407 7.97498 18.8186 7.111 19.0403C6.87003 18.1847 6.68503 17.3146 6.55715 16.4352ZM10.7395 23.82C9.4092 23.82 8.19109 22.2765 7.36981 19.8755C8.52154 19.5757 9.64722 19.1846 10.736 18.7059C11.8262 19.1879 12.9544 19.5802 14.1091 19.8789C13.2861 22.2782 12.0784 23.8217 10.7429 23.8217L10.7395 23.82ZM14.3783 19.0403C13.5134 18.8184 12.6639 18.5411 11.8351 18.2102C12.363 17.9513 12.8893 17.6735 13.4104 17.375C13.9314 17.0766 14.4456 16.7628 14.927 16.4387C14.8006 17.3167 14.6173 18.1857 14.3783 19.0403ZM15.0684 15.2673C14.4059 15.7355 13.7037 16.1848 12.9652 16.6084C12.2267 17.0321 11.4866 17.4093 10.7464 17.7472C10.0079 17.4111 9.26427 17.0321 8.52236 16.6067C7.78045 16.1814 7.07477 15.7338 6.42085 15.2673C6.34321 14.4664 6.3018 13.6347 6.3018 12.784C6.3018 11.9334 6.34321 11.1016 6.42085 10.3007C7.08339 9.83254 7.78562 9.38321 8.52408 8.95961C9.26255 8.53601 10.0079 8.157 10.7395 7.82086C11.4762 8.15528 12.2233 8.5343 12.9652 8.95961C13.7071 9.38493 14.4042 9.83083 15.0667 10.2939C15.1444 11.0948 15.1858 11.9265 15.1858 12.7772C15.1858 13.6278 15.1444 14.4647 15.0667 15.2673H15.0684ZM16.6955 6.13675C16.8301 6.45243 17.0369 6.73256 17.2996 6.95489C17.5622 7.17722 17.8733 7.33563 18.2083 7.41754C18.5432 7.49944 18.8928 7.50259 19.2292 7.42673C19.5656 7.35087 19.8796 7.19809 20.1462 6.98052C20.2274 7.06706 20.2991 7.16192 20.3602 7.26349C20.9106 8.21016 20.4827 9.72964 19.1886 11.4326C19.0115 11.6613 18.8211 11.8945 18.6175 12.1323C17.7809 11.2896 16.8767 10.5158 15.9139 9.81882C15.7886 8.64055 15.5664 7.47447 15.2496 6.33225C15.7267 6.23905 16.2089 6.17377 16.6937 6.13675H16.6955ZM16.0174 11.0056C16.7223 11.5531 17.3898 12.1467 18.0154 12.7823C17.3898 13.4185 16.7224 14.0127 16.0174 14.5608C16.0542 13.9822 16.0732 13.39 16.0743 12.784C16.0755 12.1781 16.0565 11.5853 16.0174 11.0056ZM20.3602 18.3011C19.6959 19.4468 17.7428 19.7194 15.2496 19.2324C15.5663 18.0907 15.7885 16.9252 15.9139 15.7475C16.8767 15.0505 17.7809 14.2767 18.6175 13.434C18.8211 13.6627 19.0115 13.8959 19.1886 14.1337C20.4827 15.8367 20.9106 17.3562 20.3602 18.3011Z" fill="#F8F9FA"/>
</svg>
